.
 
http://www.scenetime.com    -  Hottest private tracker on the net. !!!

New release on http://www.scenetime.com

        Seed back for speed


...................................NFO:.................................................                                                                
                                                        

                                  HONEY 2 2011 DVDRIP XVID - TA                                   


 	

INFO:
Video
ID                               : 0
Format                           : MPEG-4 Visual
Format profile                   : Advanced Simple@L5
Format settings, BVOP            : 2
Format settings, QPel            : No
Format settings, GMC             : No warppoints
Format settings, Matrix          : Default (H.263)
Muxing mode                      : Packed bitstream
Codec ID                         : XVID
Codec ID/Hint                    : XviD
Duration                         : 1h 46mn
Bit rate                         : 725 Kbps
Width                            : 720 pixels
Height                           : 384 pixels
Display aspect ratio             : 1.875
Frame rate                       : 25.000 fps
Color space                      : YUV
Chroma subsampling               : 4:2:0
Bit depth                        : 8 bits
Scan type                        : Progressive
Compression mode                 : Lossy
Bits/(Pixel*Frame)               : 0.105
Stream size                      : 550 MiB (78%)
Writing library                  : XviD 64



IMDB: http://www.imdb.com/title/tt1657283/                                 
 	SIZE:   700mb                                      
	SOURCE: HONEY 2 2011 DVDR XVID - STUFFYOUALL            
 	                                   



Audio
ID                               : 1
Format                           : MPEG Audio
Format version                   : Version 1
Format profile                   : Layer 3
Mode                             : Joint stereo
Mode extension                   : MS Stereo
Codec ID                         : 55
Codec ID/Hint                    : MP3
Duration                         : 1h 46mn
Bit rate mode                    : Constant
Bit rate                         : 192 Kbps
Channel(s)                       : 2 channels
Sampling rate                    : 48.0 KHz
Compression mode                 : Lossy
Stream size                      : 146 MiB (21%)
Alignment                        : Split accross interleaves
Interleave, duration             : 40 ms (1.00 video frame)
Interleave, preload duration     : 500 ms
Writing library                  : LAME3.98r
Encoding settings                : -m j -V 4 -q 2 -lowpass 18.6 -b 192



NOTES:
Sharpened up the video 
Audio is remuxed to my encode

[IMG]http://i.imgur.com/Ml2Hs.png[/IMG]
[IMG]http://i.imgur.com/lMSrc.png[/IMG]
[IMG]http://i.imgur.com/OvSMd.png[/IMG]
[IMG]http://i.imgur.com/K2CaX.png[/IMG]